<svg xmlns="http://www.w3.org/2000/svg" xmlns:xlink="http://www.w3.org/1999/xlink" width="45.5" height="335.5" viewBox="0 0 45.5 335.5"><defs><clipPath id="a"><rect width="45.5" height="42.301" fill="#f6b4ac"/></clipPath></defs><g transform="translate(-146.5 -461)"><line y1="303.5" transform="translate(168.5 461)" fill="none" stroke="#f6b4ac" stroke-width="3"/><g transform="translate(146.5 754.199)"><g clip-path="url(#a)"><path d="M45.5,21.006a25.629,25.629,0,0,1-4.19-.171c-7.937-1.2-14.642-4.2-17.082-12.739C23.488,5.5,23.09,2.815,22.5,0c-.212,1.711-.278,3.2-.593,4.639-1.484,6.779-4.4,12.581-11.692,14.557A45.417,45.417,0,0,1,0,20.9c.028.17.053.342.072.516a48.48,48.48,0,0,1,7.049.916c6.766,1.382,11.785,4.994,13.707,11.98.732,2.661,1.273,5.375,1.885,7.994.194-1.384.314-2.867.62-4.309,1.509-7.1,4.7-12.955,12.315-14.879a52.623,52.623,0,0,1,9.787-1.679c.018-.144.041-.286.064-.428" fill="#f6b4ac"/></g></g></g></svg>